<?xml version="1.0" encoding="utf-8"?>
<!-- Generator: Adobe Illustrator 16.0.0, SVG Export Plug-In . SVG Version: 6.00 Build 0)  -->
<!DOCTYPE svg PUBLIC "-//W3C//DTD SVG 1.1//EN" "http://www.w3.org/Graphics/SVG/1.1/DTD/svg11.dtd">
<svg version="1.1" id="Layer_1" xmlns="http://www.w3.org/2000/svg" xmlns:xlink="http://www.w3.org/1999/xlink" x="0px" y="0px"
	 width="400px" height="400px" viewBox="0 0 400 400" enable-background="new 0 0 400 400" xml:space="preserve">
<path d="M438.649,31.078c-0.587,0.001-1.171-0.091-1.733-0.27c-2.364-0.755-3.962-2.93-3.974-5.41l-0.268-51.748h-14.544
	c-14.463,0-26.23-11.769-26.23-26.234v-114.943c0-14.467,11.768-26.237,26.23-26.237h96.906v-55.866
	c0-14.465,11.767-26.234,26.23-26.234h180.996c14.281,0.213,25.836,11.898,25.836,26.232v114.943
	c0,14.466-11.768,26.234-26.232,26.234h-14.543l-0.268,51.747c-0.012,2.484-1.609,4.659-3.977,5.414
	c-0.561,0.179-1.143,0.27-1.73,0.27c-1.836,0-3.572-0.891-4.643-2.382l-39.223-55.048h-32.52v55.865
	c0,14.466-11.768,26.234-26.232,26.234H482.517l-39.225,55.052C442.221,30.188,440.484,31.078,438.649,31.078z M418.129-182.342
	c-8.307,0-14.814,6.508-14.814,14.814v114.943c0,8.308,6.508,14.814,14.814,14.814h20.266c3.1,0,5.66,2.521,5.708,5.62l0.156,39.675
	l30.649-42.977c1.072-1.452,2.789-2.318,4.594-2.318H598.73c8.307,0,14.814-6.508,14.814-14.816v-114.941
	c0-8.308-6.508-14.815-14.814-14.815L418.129-182.342z M660.654-119.874c1.744,0.049,3.391,0.906,4.43,2.316l30.648,42.976
	l0.158-39.672c0.051-3.1,2.611-5.622,5.711-5.622h20.264c8.307,0,14.814-6.507,14.814-14.814v-114.943
	c0-8.308-6.508-14.815-14.814-14.815h-180.6c-8.307,0-14.814,6.507-14.814,14.815v55.865h72.277
	c14.465,0,26.232,11.77,26.232,26.237v47.657H660.654z"/>
<g>
	<path fill-rule="evenodd" clip-rule="evenodd" d="M288.496,227.74c21.773,0.033,39.025-17.258,38.982-39.07
		c-0.041-21.65-17.477-39.084-39.094-39.092c-21.824-0.008-38.982,17.183-38.969,39.045
		C249.43,210.27,266.852,227.709,288.496,227.74z M288.881,160.636c15.283,0.153,27.66,12.904,27.486,28.311
		c-0.182,15.736-12.639,27.881-28.357,27.639c-15.574-0.238-27.76-12.881-27.533-28.566
		C260.697,172.655,273.326,160.48,288.881,160.636z"/>
	<path fill-rule="evenodd" clip-rule="evenodd" d="M342.744,269.121c-0.768-15.309-12.068-27.932-27.189-30.543
		c-5.117-0.883-10.453-0.566-15.691-0.686c-12.92-0.295-22.797,5.25-29.969,15.836c-3.867,5.711-7.898,11.332-11.395,17.264
		c-2.25,3.816-5.078,5.457-9.443,6.107c-13.664,2.035-23.27,12.49-24.346,26.014c-0.174,2.174-0.939,2.742-3.004,2.73
		c-13.287-0.074-26.575-0.078-39.862,0.004c-2.142,0.014-2.779-0.701-2.943-2.799c-0.937-11.988-9.063-21.926-20.492-25.15
		c-2.466-0.697-5.081-0.881-7.527-1.629c-1.331-0.406-2.836-1.236-3.601-2.334c-4.584-6.59-8.694-13.527-13.534-19.916
		c-3.055-4.033-6.683-7.904-10.785-10.818c-10.378-7.377-22.532-6.293-34.053-4.705c-17.061,2.352-28.168,16.299-28.264,33.758
		c-0.116,21.217-0.032,42.436-0.026,63.652c0,0.822,0.012,1.658,0.153,2.463c0.49,2.785,2.179,4.367,4.999,4.6
		c2.792,0.23,5.039-1.377,5.692-4.135c0.28-1.182,0.299-2.445,0.3-3.672c0.017-21.012-0.023-42.023,0.028-63.035
		c0.028-11.744,7.564-21.004,18.938-22.82c4.226-0.676,8.628-0.232,12.948-0.348c9.135-0.244,16.022,3.613,20.993,11.217
		c5.013,7.668,10.183,15.232,15.204,22.893c1.403,2.141,3.184,3.322,5.729,3.682c3.255,0.461,6.519,1.004,9.696,1.832
		c6.967,1.816,12.442,8.551,12.23,14.904c-0.789,0.047-1.597,0.139-2.405,0.141c-9.476,0.01-18.952,0.004-28.428,0.004
		c-8.64,0-14.667-4.059-18.249-11.83c-1.937-4.201-3.714-8.479-5.668-12.674c-1.502-3.223-4.404-4.422-7.357-3.223
		c-2.83,1.152-4.074,4.313-2.844,7.533c0.733,1.918,1.602,3.791,2.509,5.635c2.727,5.543,5.503,11.061,8.333,16.736
		c-0.924,0-2.035-0.002-3.146,0c-7.107,0.002-14.215-0.043-21.321,0.033c-3.326,0.035-5.616,2.232-5.748,5.227
		c-0.135,3.074,2.212,5.539,5.579,5.816c0.819,0.066,1.647,0.021,2.471,0.021c73.646,0.002,147.29,0.002,220.937,0
		c0.824,0,1.65,0.039,2.471-0.018c3.41-0.234,5.779-2.594,5.732-5.672c-0.047-3.105-2.408-5.324-5.916-5.385
		c-4.119-0.072-8.24-0.023-12.359-0.023c-4.074-0.002-8.148,0-11.744,0c3.529-7.422,7.057-14.66,10.414-21.977
		c1.572-3.424,0.441-6.564-2.488-7.857c-3.012-1.328-5.986-0.086-7.557,3.301c-1.902,4.105-3.668,8.273-5.541,12.393
		c-3.6,7.918-9.699,11.99-18.469,11.969c-9.373-0.021-18.746,0-28.119-0.012c-0.902,0-1.807-0.1-2.703-0.152
		c0.174-6.717,5.523-13.121,12.494-14.918c2.98-0.77,6.029-1.395,9.086-1.723c3.074-0.33,5.016-1.855,6.646-4.363
		c5.049-7.768,10.246-15.438,15.381-23.148c3.674-5.516,8.773-8.908,15.285-10.051c1.908-0.336,3.9-0.145,5.846-0.316
		c22.334-1.971,32.477,9.131,31.369,31.023c-0.961,19.008-0.209,38.102-0.182,57.156c0.002,1.426,0.037,2.924,0.457,4.262
		c0.809,2.564,2.799,3.76,5.459,3.611c2.666-0.15,4.441-1.576,4.99-4.227c0.246-1.193,0.229-2.455,0.23-3.688
		c0.016-12.051,0.029-24.102,0.004-36.152C342.961,290.332,343.275,279.703,342.744,269.121z"/>
	<path fill-rule="evenodd" clip-rule="evenodd" d="M156.802,141.589c1.721,0.021,3.442,0.002,5.508,0.002
		c0,7.352,0.045,14.322-0.023,21.292c-0.025,2.639,0.475,4.93,2.955,6.318c2.515,1.409,4.702,0.46,6.907-0.927
		c11.319-7.121,22.817-13.969,33.947-21.373c5.696-3.791,11.383-5.641,18.332-5.466c12.783,0.319,22.396-9.694,22.453-22.446
		c0.049-11.118,0.039-22.236,0.004-33.354c-0.039-12.723-9.174-22.619-21.914-22.785c-22.953-0.299-45.915-0.285-68.868-0.007
		c-12.593,0.153-21.828,9.792-22.035,22.408c-0.186,11.321-0.206,22.65,0.006,33.97C134.315,132.09,143.975,141.434,156.802,141.589
		z M145.365,84.249c0.14-5.973,4.969-10.284,11.017-10.306c22.754-0.082,45.509-0.087,68.263,0.002
		c6.346,0.025,11.088,4.866,11.148,11.245c0.109,11.324,0.107,22.652,0.002,33.976c-0.061,6.502-4.971,11.784-11.408,11.178
		c-9.404-0.886-17.129,2.098-24.629,7.403c-7.378,5.221-15.289,9.689-22.972,14.479c-0.928,0.578-1.891,1.098-3.397,1.969
		c0-6.262,0.033-11.817-0.01-17.372c-0.032-4.191-2.058-6.233-6.26-6.312c-3.499-0.065-7.002,0.031-10.501-0.031
		c-6.195-0.11-11.118-4.303-11.259-10.411C145.084,108.134,145.086,96.184,145.365,84.249z"/>
	<path fill-rule="evenodd" clip-rule="evenodd" d="M115.236,227.738c21.731-0.176,38.97-17.547,38.949-39.248
		c-0.021-21.82-17.231-38.947-39.103-38.916c-21.554,0.031-39.015,17.609-38.96,39.224
		C76.176,210.635,93.531,227.912,115.236,227.738z M114.976,160.635c15.648-0.05,28.115,12.328,28.152,27.951
		c0.036,15.426-12.376,27.93-27.793,28.002c-15.756,0.074-28.05-12.131-28.101-27.896
		C87.184,173.285,99.644,160.683,114.976,160.635z"/>
	<path fill-rule="evenodd" clip-rule="evenodd" d="M174.324,96.38c5.342,0.036,10.684,0.009,16.025,0.009
		c5.342,0,10.684,0.019,16.024-0.006c4.267-0.019,6.607-2.04,6.559-5.589c-0.047-3.374-2.439-5.464-6.429-5.474
		c-10.683-0.028-21.367-0.029-32.05,0c-3.906,0.011-6.445,2.22-6.49,5.5C167.917,94.115,170.432,96.354,174.324,96.38z"/>
	<path fill-rule="evenodd" clip-rule="evenodd" d="M174.109,119.081c10.887,0.061,21.775,0.059,32.663,0.003
		c3.896-0.02,6.244-2.324,6.161-5.756c-0.081-3.314-2.308-5.271-6.209-5.306c-5.341-0.048-10.682-0.012-16.023-0.011
		c-5.546,0-11.093-0.043-16.639,0.016c-3.674,0.04-6.125,2.325-6.101,5.505C167.984,116.697,170.465,119.061,174.109,119.081z"/>
</g>
</svg>
